<?xml version="1.0" encoding="UTF-8"?>
<svg version="1.1" xmlns="http://www.w3.org/2000/svg" width="20" height="20">
<path d="M0 0 C6.21022081 3.77380156 11.12756342 9.38269026 13.4375 16.3125 C14.06027571 24.34732765 14.41847862 31.64415403 9.4375 38.3125 C4.85388456 43.61984419 -0.46283458 47.99473686 -7.63671875 48.55078125 C-16.8461929 48.73994883 -22.33912774 47.95995786 -29.3125 41.9375 C-35.62744532 34.57006379 -36.92244811 29.37808317 -36.84375 19.8359375 C-36.26602578 12.59833686 -33.0249729 7.99461963 -27.5625 3.3125 C-19.66584559 -2.37309117 -9.18150824 -4.36209587 0 0 Z M-26.5 8.375 C-30.75870976 13.17866314 -32.6029976 18.48836942 -32.53515625 24.89453125 C-31.61991631 31.58915145 -28.59564527 35.9137848 -23.5625 40.3125 C-18.69363399 43.45697597 -13.94686209 44.82561296 -8.140625 43.9453125 C-1.75073432 42.37688479 2.70229148 39.80181196 6.4375 34.3125 C9.36148716 28.46452568 10.04785666 23.04985481 8.4296875 16.70703125 C6.17010457 11.25378582 2.3311959 7.53551194 -2.5625 4.375 C-11.25684127 1.29575413 -19.458323 2.07768632 -26.5 8.375 Z " fill="#6D1BF4" transform="translate(36.5625,1.6875)"/>
</svg>
